<svg id="visual" viewBox="0 0 1920 1080" width="1920" height="1080" xmlns="http://www.w3.org/2000/svg" xmlns:xlink="http://www.w3.org/1999/xlink" version="1.1"><path d="M0 689L53.3 636.7C106.7 584.3 213.3 479.7 320 434C426.7 388.3 533.3 401.7 640 447.5C746.7 493.3 853.3 571.7 960 602.8C1066.7 634 1173.3 618 1280 600.3C1386.7 582.7 1493.3 563.3 1600 552.7C1706.7 542 1813.3 540 1866.7 539L1920 538L1920 0L1866.7 0C1813.3 0 1706.7 0 1600 0C1493.3 0 1386.7 0 1280 0C1173.3 0 1066.7 0 960 0C853.3 0 746.7 0 640 0C533.3 0 426.7 0 320 0C213.3 0 106.7 0 53.3 0L0 0Z" fill="#FCAF3C" stroke-linecap="round" stroke-linejoin="miter"></path></svg>